PathFileType	4	(X/Y/Z)	Static 1_gm.trc
DataRate	CameraRate	NumFrames	NumMarkers	Units	OrigDataRate	OrigDataStartFrame	OrigNumFrames
150	150	4	82	mm	150	463	529
Frame#	Time	P1			P2			P3			ST1			ST2			ST3			LACR1			LACR2			LACR3			LUA1			LUA2			LUA3			LUA4			LLA1			LLA2			LLA3			LLA4			LH1			LH2			LH3			RACR1			RACR2			RACR3			RUA1			RUA2			RUA3			RUA4			RLA1			RLA2			RLA3			RLA4			RH1			RH2			RH3			REL			REM			RRS			RUS			RMC3			RMCP2			RMCP3			RMCP5			RAA			RAI			RTS			RPC			RAC			RGH			C7			T8			IJ			PX			RElevationplaneH2			RShoulderElevationH2			RShoulderRotationH2			RElevationplaneH1			RShoulderElevationH1			RShoulderRotationH1			RElbowFlExt			RElbowProSupination			RWristFlExt			RWristDeviation			RScapProRetraction			RScapRotation			RScapTilting			RTrunkFlExt			RTrunkLateralFl			RTrunkAxialRotation			RH2SAG_Flexion			RH2SAG_Abduction			RH2SAG_Rotation			RH2FRONT_Abduction			RH2FRONT_Flexion			RH2FRONT_Rotation			RH1SAG_Flexion			RH1SAG_Abduction			RH1SAG_Rotation			RH1FRONT_Abduction			RH1FRONT_Flexion			RH1FRONT_Rotation			REB			HWM		
		X1	Y1	Z1	X2	Y2	Z2	X3	Y3	Z3	X4	Y4	Z4	X5	Y5	Z5	X6	Y6	Z6	X7	Y7	Z7	X8	Y8	Z8	X9	Y9	Z9	X10	Y10	Z10	X11	Y11	Z11	X12	Y12	Z12	X13	Y13	Z13	X14	Y14	Z14	X15	Y15	Z15	X16	Y16	Z16	X17	Y17	Z17	X18	Y18	Z18	X19	Y19	Z19	X20	Y20	Z20	X21	Y21	Z21	X22	Y22	Z22	X23	Y23	Z23	X24	Y24	Z24	X25	Y25	Z25	X26	Y26	Z26	X27	Y27	Z27	X28	Y28	Z28	X29	Y29	Z29	X30	Y30	Z30	X31	Y31	Z31	X32	Y32	Z32	X33	Y33	Z33	X34	Y34	Z34	X35	Y35	Z35	X36	Y36	Z36	X37	Y37	Z37	X38	Y38	Z38	X39	Y39	Z39	X40	Y40	Z40	X41	Y41	Z41	X42	Y42	Z42	X43	Y43	Z43	X44	Y44	Z44	X45	Y45	Z45	X46	Y46	Z46	X47	Y47	Z47	X48	Y48	Z48	X49	Y49	Z49	X50	Y50	Z50	X51	Y51	Z51	X52	Y52	Z52	X53	Y53	Z53	X54	Y54	Z54	X55	Y55	Z55	X56	Y56	Z56	X57	Y57	Z57	X58	Y58	Z58	X59	Y59	Z59	X60	Y60	Z60	X61	Y61	Z61	X62	Y62	Z62	X63	Y63	Z63	X64	Y64	Z64	X65	Y65	Z65	X66	Y66	Z66	X67	Y67	Z67	X68	Y68	Z68	X69	Y69	Z69	X70	Y70	Z70	X71	Y71	Z71	X72	Y72	Z72	X73	Y73	Z73	X74	Y74	Z74	X75	Y75	Z75	X76	Y76	Z76	X77	Y77	Z77	X78	Y78	Z78	X79	Y79	Z79	X80	Y80	Z80	X81	Y81	Z81	X82	Y82	Z82
	
463	3.080000	351.993103	1626.830933	-748.884644	261.166534	1694.671631	-729.872559	208.619766	1591.378906	-736.349060	326.887939	1167.520264	-27.426668	348.908905	1114.270996	4.967099	329.537781	1166.380981	28.699911	275.285217	1268.151367	-213.156845	184.061646	1230.088013	-149.836594	215.056870	1171.255371	-238.293976	229.830399	1076.518433	-215.922531	248.318222	1008.630310	-216.561218	286.956757	1026.732666	-196.316299	282.192688	1102.085938	-196.092133	445.777283	737.586304	-199.850052	515.562927	747.809753	-264.461273	548.057800	823.289429	-159.369324	458.186737	772.029419	-141.977798	530.488464	703.318848	-191.418442	580.061707	701.190979	-176.467239	543.536682	726.629089	-148.306885	287.179382	1256.128906	238.102982	241.087326	1159.032471	263.801025	204.668411	1217.872559	173.740845	307.033173	1067.066772	217.261383	316.872437	1006.009155	214.027527	262.902252	989.454407	233.184296	254.917450	1057.007568	233.988327	470.451141	779.299561	153.998352	565.930176	817.427002	154.563141	537.869629	738.780396	253.708481	458.550568	730.268188	195.653656	553.606628	728.234924	128.517563	591.462524	708.132996	153.702805	543.365784	698.358337	178.181351	330.169830	853.414246	228.748337	287.731873	838.473938	184.763123	521.069153	721.660828	122.282829	521.044250	715.862915	171.651169	559.737183	708.101807	150.753342	603.918884	704.396484	122.515266	607.150513	694.807556	149.586792	580.341064	668.747742	172.337158	189.544067	1160.517212	144.974838	156.888565	1036.662354	104.455032	174.764648	1176.487061	77.592995	292.102020	1155.564575	130.818542	266.789062	1187.558228	169.671844	265.402588	1144.096313	156.249207	196.303406	1253.422363	2.701633	151.792221	1097.419312	15.945181	300.741364	1176.404663	2.537962	353.446442	1009.428711	1.655205	0.000000	0.000000	40.870316	0.000000	0.000000	-10.005301	0.000000	0.000000	-19.471006	0.000000	0.000000	40.870316	0.000000	0.000000	-10.005301	0.000000	0.000000	1.210521	0.000000	0.000000	49.762962	0.000000	0.000000	138.880356	0.000000	0.000000	-16.492506	0.000000	0.000000	4.762532	0.000000	0.000000	10.362735	0.000000	0.000000	15.484119	0.000000	0.000000	-11.021922	0.000000	0.000000	0.263153	0.000000	0.000000	-0.231876	0.000000	0.000000	-0.053324	0.000000	0.000000	6.585180	0.000000	0.000000	-7.549366	0.000000	0.000000	21.834249	0.000000	0.000000	-7.598920	0.000000	0.000000	6.527851	0.000000	0.000000	20.965324	0.000000	0.000000	6.585180	0.000000	0.000000	-7.549366	0.000000	0.000000	42.515778	0.000000	0.000000	-7.598920	0.000000	0.000000	6.527851	0.000000	0.000000	41.646851	308.950867	845.944092	206.755737	521.056702	718.761841	146.966995
464	3.086667	352.056824	1626.863525	-748.871216	261.205536	1694.623291	-729.816223	208.681000	1591.335938	-736.260925	326.859558	1167.486206	-27.442837	348.889130	1114.257202	4.967169	329.524384	1166.349365	28.681076	275.238342	1268.164795	-213.166306	184.055527	1230.118530	-149.828918	215.043839	1171.243896	-238.307678	229.826309	1076.488159	-215.917557	248.310959	1008.622009	-216.554535	286.948669	1026.778809	-196.331711	282.166412	1102.075073	-196.145844	445.789124	737.579163	-199.865829	515.565674	747.792969	-264.457031	548.060974	823.283630	-159.374237	458.198456	772.060852	-141.993881	530.526672	703.320496	-191.414276	580.044617	701.192688	-176.499939	543.546265	726.615356	-148.311127	287.181427	1256.139160	238.113312	241.098206	1159.028687	263.800232	204.676926	1217.866455	173.731323	307.038330	1067.077271	217.268219	316.874847	1006.028076	214.013092	262.916840	989.485107	233.178894	254.877533	1056.981689	234.010605	470.454407	779.298584	154.030487	565.914429	817.442749	154.566879	537.855469	738.768982	253.692703	458.542999	730.298645	195.686035	553.583801	728.215759	128.493820	591.469788	708.160767	153.730713	543.377869	698.372437	178.149368	330.217590	853.434631	228.689453	287.776428	838.495300	184.706970	521.038269	721.677124	122.286446	521.024658	715.872192	171.653961	559.741455	708.104126	150.744537	603.944824	704.427429	122.536667	607.169983	694.860657	149.616806	580.374573	668.787354	172.368362	189.571106	1160.510498	144.965515	156.942932	1036.651367	104.436829	174.798157	1176.480225	77.582214	292.131866	1155.576538	130.823151	266.807953	1187.564331	169.674103	265.430969	1144.102661	156.249725	196.271042	1253.380127	2.689811	151.780243	1097.375122	15.980259	300.717834	1176.374390	2.525962	353.441925	1009.404236	1.674884	0.000000	0.000000	40.940582	0.000000	0.000000	-9.985316	0.000000	0.000000	-19.564096	0.000000	0.000000	40.940582	0.000000	0.000000	-9.985316	0.000000	0.000000	1.134108	0.000000	0.000000	49.737167	0.000000	0.000000	138.874954	0.000000	0.000000	-16.568409	0.000000	0.000000	4.786369	0.000000	0.000000	10.345425	0.000000	0.000000	15.498960	0.000000	0.000000	-11.015689	0.000000	0.000000	0.248902	0.000000	0.000000	-0.225332	0.000000	0.000000	-0.042720	0.000000	0.000000	6.581101	0.000000	0.000000	-7.526305	0.000000	0.000000	21.809826	0.000000	0.000000	-7.575650	0.000000	0.000000	6.524156	0.000000	0.000000	20.944078	0.000000	0.000000	6.581101	0.000000	0.000000	-7.526305	0.000000	0.000000	42.508030	0.000000	0.000000	-7.575650	0.000000	0.000000	6.524156	0.000000	0.000000	41.642281	308.997009	845.964966	206.698212	521.031494	718.774658	146.970200
465	3.093333	352.085785	1626.875122	-748.857300	261.214050	1694.599487	-729.734619	208.722656	1591.274902	-736.183533	326.865570	1167.500122	-27.450077	348.906891	1114.320557	4.985875	329.489258	1166.354858	28.739574	275.255493	1268.137695	-213.169525	184.048309	1230.123169	-149.832855	215.048676	1171.250122	-238.304626	229.811584	1076.497437	-215.926727	248.300278	1008.608215	-216.554108	286.957764	1026.770264	-196.302094	282.149994	1102.054199	-196.133179	445.764465	737.547791	-199.835464	515.539001	747.850891	-264.452728	548.079712	823.323364	-159.347992	458.209930	772.081360	-141.983337	530.501221	703.307373	-191.389786	580.061096	701.202271	-176.486557	543.553345	726.602173	-148.287796	287.178009	1256.162964	238.118790	241.110580	1159.019653	263.809509	204.672882	1217.842407	173.746078	307.044922	1067.075073	217.268768	316.873322	1005.984497	213.987366	262.904633	989.480713	233.163864	254.927429	1056.977295	233.968765	470.460602	779.312378	154.016541	565.928833	817.484619	154.583054	537.869812	738.759521	253.693466	458.564697	730.306030	195.667923	553.599426	728.236023	128.507812	591.499939	708.172485	153.727066	543.379822	698.396362	178.147491	330.147034	853.400391	228.669250	287.704865	838.481873	184.680695	521.068909	721.713684	122.270401	521.050415	715.893494	171.636124	559.756287	708.124084	150.746948	603.957642	704.438782	122.537048	607.180908	694.867065	149.615646	580.378784	668.798096	172.364227	189.585114	1160.485962	144.980408	156.994553	1036.614502	104.459381	174.803925	1176.447632	77.597000	292.146790	1155.583984	130.833511	266.814484	1187.565674	169.684052	265.450714	1144.102783	156.261902	196.168640	1253.276367	2.637370	151.815125	1097.225708	15.849278	300.688202	1176.369385	2.530884	353.570648	1009.449341	1.672056	0.000000	0.000000	40.661736	0.000000	0.000000	-9.944123	0.000000	0.000000	-19.259731	0.000000	0.000000	40.661736	0.000000	0.000000	-9.944123	0.000000	0.000000	1.459440	0.000000	0.000000	49.766510	0.000000	0.000000	138.880478	0.000000	0.000000	-16.532358	0.000000	0.000000	4.778794	0.000000	0.000000	10.383206	0.000000	0.000000	15.488449	0.000000	0.000000	-11.054151	0.000000	0.000000	0.265490	0.000000	0.000000	-0.171026	0.000000	0.000000	-0.086041	0.000000	0.000000	6.517112	0.000000	0.000000	-7.527130	0.000000	0.000000	21.831169	0.000000	0.000000	-7.575520	0.000000	0.000000	6.460713	0.000000	0.000000	20.973820	0.000000	0.000000	6.517112	0.000000	0.000000	-7.527130	0.000000	0.000000	42.550339	0.000000	0.000000	-7.575520	0.000000	0.000000	6.460713	0.000000	0.000000	41.692989	308.925964	845.941162	206.674973	521.059692	718.803589	146.953262
466	3.100000	352.121735	1626.871216	-748.813904	261.212006	1694.540161	-729.639221	208.792862	1591.215942	-736.084290	326.860504	1167.501099	-27.453650	348.892578	1114.319824	4.933046	329.539703	1166.415771	28.681618	275.091980	1268.165405	-213.321945	183.829773	1230.308716	-150.009689	215.032135	1171.242310	-238.313049	229.823746	1076.498291	-215.907959	248.305923	1008.607056	-216.571518	286.977905	1026.732666	-196.280304	282.160095	1102.053345	-196.127914	445.770935	737.539001	-199.846741	515.548645	747.853577	-264.457581	548.066711	823.308411	-159.348907	458.229980	772.055847	-142.004654	530.515503	703.311646	-191.406067	580.049744	701.220032	-176.481201	543.556274	726.604309	-148.289749	287.197052	1256.157715	238.095764	241.089844	1159.019775	263.809784	204.661316	1217.872314	173.701950	307.062164	1067.076660	217.269455	316.865265	1006.020142	214.001434	262.913055	989.495056	233.132599	254.890121	1056.985596	233.983765	470.473663	779.307800	154.013397	565.942993	817.476501	154.555130	537.879089	738.772156	253.703949	458.560760	730.335266	195.682892	553.633606	728.240112	128.498840	591.494629	708.135437	153.643845	543.380920	698.384766	178.160629	330.160919	853.419250	228.630096	287.734161	838.509033	184.623886	521.060913	721.696960	122.281906	521.045837	715.892334	171.649460	559.758667	708.114502	150.722504	603.924438	704.381226	122.463257	607.164124	694.794067	149.534439	580.351562	668.751892	172.301376	189.560806	1160.510010	144.961777	156.918747	1036.648438	104.451508	174.787537	1176.471680	77.576653	292.120667	1155.563477	130.817123	266.801178	1187.559326	169.664307	265.419312	1144.095825	156.246094	196.273605	1253.422485	2.719104	151.796036	1097.418945	16.071182	300.723511	1176.421021	2.521767	353.454163	1009.452881	1.685921	0.000000	0.000000	40.968880	0.000000	0.000000	-9.959384	0.000000	0.000000	-19.656517	0.000000	0.000000	40.968880	0.000000	0.000000	-9.959384	0.000000	0.000000	1.052274	0.000000	0.000000	49.744125	0.000000	0.000000	138.903366	0.000000	0.000000	-16.451582	0.000000	0.000000	4.714860	0.000000	0.000000	10.316110	0.000000	0.000000	15.506390	0.000000	0.000000	-11.023921	0.000000	0.000000	0.234414	0.000000	0.000000	-0.223066	0.000000	0.000000	-0.013742	0.000000	0.000000	6.567515	0.000000	0.000000	-7.503609	0.000000	0.000000	21.743498	0.000000	0.000000	-7.552605	0.000000	0.000000	6.511031	0.000000	0.000000	20.882143	0.000000	0.000000	6.567515	0.000000	0.000000	-7.503609	0.000000	0.000000	42.452290	0.000000	0.000000	-7.552605	0.000000	0.000000	6.511031	0.000000	0.000000	41.590935	308.947540	845.964111	206.626984	521.053345	718.794678	146.965683
